<svg width="19" height="21" viewBox="0 0 19 21" fill="none" xmlns="http://www.w3.org/2000/svg">
<path d="M2.12211 18.6537L3.14938 16.0106L4.50804 16.5133L7.25814 17.5307C8.43208 17.965 9.51385 18.1049 10.5035 17.9503C11.5139 17.7867 12.3867 17.379 13.122 16.7274C13.8724 16.0812 14.4502 15.2369 14.8554 14.1944C15.2549 13.1665 15.3951 12.1856 15.2762 11.2514C15.1573 10.3173 14.7695 9.47688 14.1129 8.73014C13.4714 7.98897 12.5562 7.39846 11.3672 6.95859C11.3672 6.95859 8.77241 6.31244 7.32617 5.46361C6.15361 4.77541 5.52482 4.29479 4.61609 3.29665C3.58964 2.16922 2.5553 0 2.5553 0C2.5553 0 3.76251 1.04493 4.61609 1.60844C7.28716 3.37183 10.5734 3.64186 12.3945 4.31557C14.2156 4.98929 15.6778 5.89973 16.7813 7.04691C17.8904 8.17941 18.5826 9.47676 18.8578 10.9389C19.1537 12.392 18.9878 13.9261 18.36 15.5413C17.7323 17.1565 16.8081 18.4269 15.5876 19.3526C14.3728 20.2635 12.9598 20.7988 11.3484 20.9585C9.75782 21.109 8.0595 20.8502 6.25345 20.1821L2.12211 18.6537Z" fill="white"/>
<path d="M2.12211 18.6537L3.14938 16.0106L4.50804 16.5133L6.56053 11.2566L7.66606 8.52471C7.66606 8.52471 6.77074 8.14911 6.26472 7.80092C5.48061 7.26137 4.57489 6.06078 4.57489 6.06078L0 17.8686L2.12211 18.6537Z" fill="white"/>
</svg>
